<svg width="256" height="256" viewBox="0 0 256 256" xmlns="http://www.w3.org/2000/svg" role="img" aria-label="Chrome书签整理 Logo">
  <defs>
    <linearGradient id="bg" x1="0" y1="0" x2="1" y2="1">
      <stop offset="0%" stop-color="#1e4f7c"/>
      <stop offset="100%" stop-color="#10b9d9"/>
    </linearGradient>
    <linearGradient id="mark" x1="0" y1="0" x2="0" y2="1">
      <stop offset="0%" stop-color="#ffffff"/>
      <stop offset="100%" stop-color="#d8ecff"/>
    </linearGradient>
  </defs>

  <rect x="8" y="8" width="240" height="240" rx="56" fill="url(#bg)"/>
  <rect x="20" y="20" width="216" height="216" rx="48" fill="none" stroke="rgba(255,255,255,0.28)" stroke-width="2"/>

  <path d="M82 54h92c12.15 0 22 9.85 22 22v126c0 3.64-4.19 5.67-7.04 3.4L128 160.5 67.04 205.4c-2.85 2.27-7.04.24-7.04-3.4V76c0-12.15 9.85-22 22-22z" fill="url(#mark)"/>
  <path d="M82 54h92c12.15 0 22 9.85 22 22v14H60V76c0-12.15 9.85-22 22-22z" fill="rgba(255,255,255,0.2)"/>
  <circle cx="94" cy="72" r="4" fill="#7cc8ff"/>
  <circle cx="108" cy="72" r="4" fill="#7cc8ff"/>
  <circle cx="122" cy="72" r="4" fill="#7cc8ff"/>
</svg>
